<svg xmlns="http://www.w3.org/2000/svg" width="15" height="15" viewBox="0 0 15 15">
  <metadata><?xpacket begin="﻿" id="W5M0MpCehiHzreSzNTczkc9d"?>
<x:xmpmeta xmlns:x="adobe:ns:meta/" x:xmptk="Adobe XMP Core 5.6-c138 79.159824, 2016/09/14-01:09:01        ">
   <rdf:RDF xmlns:rdf="http://www.w3.org/1999/02/22-rdf-syntax-ns#">
      <rdf:Description rdf:about=""/>
   </rdf:RDF>
</x:xmpmeta>
                                                                                                    
                                                                                                    
                                                                                                    
                                                                                                    
                                                                                                    
                                                                                                    
                                                                                                    
                                                                                                    
                                                                                                    
                                                                                                    
                                                                                                    
                                                                                                    
                                                                                                    
                                                                                                    
                                                                                                    
                                                                                                    
                                                                                                    
                                                                                                    
                                                                                                    
                                                                                                    
                           
<?xpacket end="w"?></metadata>
<defs>
    <style>
      .cls-1 {
        fill: #00d173;
        fill-rule: evenodd;
      }
    </style>
  </defs>
  <path id="Forma_4" data-name="Forma 4" class="cls-1" d="M13.9,7.207A8.416,8.416,0,0,0,7.486,4,8.416,8.416,0,0,0,1.075,7.207a0.482,0.482,0,0,0,0,.577,8.416,8.416,0,0,0,6.411,3.207A8.416,8.416,0,0,0,13.9,7.784,0.482,0.482,0,0,0,13.9,7.207ZM7.486,9.955a7.275,7.275,0,0,1-5.229-2.46A7.24,7.24,0,0,1,7.486,5.036,7.275,7.275,0,0,1,12.714,7.5,7.275,7.275,0,0,1,7.486,9.955ZM7.813,5.367a2.482,2.482,0,0,0-1.735.411h0a2.039,2.039,0,0,0-.463,3.009,2.372,2.372,0,0,0,1.545.837,2.577,2.577,0,0,0,.331.021,2.46,2.46,0,0,0,1.4-.432A2.039,2.039,0,0,0,9.357,6.2,2.371,2.371,0,0,0,7.813,5.367ZM8.382,8.594a1.58,1.58,0,0,1-1.1.262,1.511,1.511,0,0,1-.984-0.534A1.3,1.3,0,0,1,6.59,6.4a1.58,1.58,0,0,1,1.1-.262,1.511,1.511,0,0,1,.983.533A1.3,1.3,0,0,1,8.382,8.594ZM8.326,6.725a0.488,0.488,0,0,1,0,.733,0.6,0.6,0,0,1-.8,0,0.488,0.488,0,0,1,0-.733A0.6,0.6,0,0,1,8.326,6.725Z"/>
</svg>
